{"glyphs":{"0":{"ha":446,"x_min":39,"x_max":408,"o":"m 138 831 q 169 840 153 840 q 211 831 186 840 q 242 808 242 818 q 235 797 242 803 q 181 622 199 767 q 178 563 178 592 q 188 418 178 464 q 242 229 203 301 q 269 188 265 188 q 310 247 288 188 q 339 369 333 306 q 344 513 344 424 q 329 753 344 653 q 321 821 321 806 q 328 836 321 836 q 369 724 342 836 q 406 481 400 601 q 408 394 408 419 q 339 140 408 183 q 285 132 325 132 q 170 164 215 133 q 89 267 125 194 q 53 378 68 308 q 39 507 39 447 l 39 521 q 58 675 42 621 q 64 699 60 678 q 94 774 71 732 q 138 831 118 815 z "},"1":{"ha":413,"x_min":42,"x_max":376,"o":"m 269 922 q 280 940 276 938 q 296 940 283 942 q 334 927 313 939 q 363 904 356 915 q 372 840 368 894 q 376 675 376 747 q 367 357 376 649 q 353 190 361 222 q 311 157 344 157 l 301 157 q 272 192 286 158 q 251 279 257 225 q 226 513 233 449 q 222 599 222 550 q 226 681 222 647 q 229 711 229 708 q 226 721 229 721 q 218 713 225 721 q 149 626 194 676 q 92 571 104 575 l 86 571 q 58 576 75 571 q 42 585 42 581 q 110 683 42 596 q 269 922 235 851 z "},"2":{"ha":479,"x_min":36,"x_max":438,"o":"m 36 676 q 59 781 36 738 q 126 832 82 824 q 147 833 132 833 q 257 810 214 833 q 329 724 306 785 q 339 651 339 696 q 328 567 339 601 q 264 396 303 482 q 218 275 218 300 q 224 251 218 268 q 285 220 232 229 q 388 208 339 211 q 438 196 438 204 q 310 182 438 183 q 188 190 229 182 q 68 254 90 213 q 63 283 63 264 q 92 381 63 338 q 115 426 97 389 q 138 471 132 463 q 189 603 169 522 q 200 686 200 643 q 185 767 200 735 q 168 786 176 786 q 140 768 161 786 q 101 706 117 746 q 85 628 85 667 q 86 608 85 615 q 85 585 89 589 q 67 590 81 582 q 36 676 36 606 z "},"3":{"ha":436,"x_min":38,"x_max":396,"o":"m 199 675 q 205 685 199 678 q 211 697 211 692 q 224 729 211 704 q 246 826 246 774 q 217 888 246 888 q 155 867 190 888 q 97 819 119 847 q 57 735 61 774 q 47 714 54 714 q 40 719 43 714 q 38 740 38 725 q 44 788 38 769 q 54 813 50 803 q 78 851 57 825 q 122 894 100 878 q 194 919 160 919 q 240 911 215 919 q 357 769 357 876 q 328 657 357 719 q 313 624 313 626 q 287 581 313 618 q 256 540 261 543 q 251 535 251 539 q 283 510 251 529 q 386 374 356 467 q 396 290 396 340 q 394 238 396 250 q 381 203 392 226 q 214 103 333 103 q 54 186 94 103 q 42 268 43 207 q 41 288 42 275 q 40 306 40 300 q 43 338 40 332 q 53 347 47 347 q 71 328 61 347 q 81 299 81 308 q 117 197 81 272 q 192 126 151 126 q 203 128 199 126 q 272 185 247 140 q 296 293 296 231 q 256 453 296 376 q 186 507 231 500 q 135 522 157 511 q 114 544 114 532 q 139 593 114 565 q 176 641 154 611 q 199 675 199 671 z "},"4":{"ha":583,"x_min":42,"x_max":540,"o":"m 308 604 l 307 685 q 222 584 299 685 q 144 472 144 483 q 224 463 144 463 l 300 464 l 314 467 l 311 494 q 308 604 308 525 m 321 819 q 328 844 324 819 q 341 900 333 868 q 358 946 349 932 q 385 954 365 956 q 432 925 428 950 q 438 831 435 906 q 446 642 442 718 q 463 475 454 486 q 496 469 468 468 l 503 469 q 540 461 540 469 q 494 446 540 453 q 469 442 472 443 q 463 292 464 440 q 457 138 461 160 q 428 115 453 115 q 393 129 403 115 q 368 201 383 143 q 325 371 329 346 q 323 385 324 376 q 322 396 322 393 q 320 404 321 399 q 319 411 319 410 q 317 416 318 413 q 313 420 315 419 q 309 422 311 421 q 303 424 307 424 q 296 424 300 424 q 286 424 292 424 l 267 424 q 168 429 221 424 q 83 453 126 433 q 51 471 60 464 q 42 488 42 478 q 46 506 42 494 q 77 565 54 528 q 117 622 100 603 q 124 631 119 625 q 133 640 129 636 q 138 647 136 644 q 238 751 165 683 q 321 819 310 819 z "},"5":{"ha":447,"x_min":40,"x_max":407,"o":"m 201 722 q 196 672 201 717 q 190 614 190 626 q 192 606 190 607 l 197 604 q 210 600 201 603 q 226 596 218 597 q 358 536 315 574 q 406 435 400 499 q 406 424 406 431 q 407 413 407 417 q 378 294 407 350 q 303 219 349 239 q 238 208 274 208 q 139 229 178 208 q 88 326 88 257 q 90 360 88 349 q 128 385 94 385 q 156 374 146 385 q 158 349 164 364 q 153 317 153 336 q 166 263 153 288 q 197 238 179 238 q 223 254 207 238 q 250 293 239 271 q 271 403 271 336 q 249 521 271 472 q 229 540 240 540 q 203 533 224 540 q 164 525 178 525 q 90 542 132 525 q 42 574 47 560 q 40 585 40 576 q 71 725 40 604 q 126 903 113 886 q 143 908 132 908 q 170 901 153 908 q 193 886 188 893 q 207 793 207 872 l 207 765 l 231 765 q 303 760 260 765 q 346 744 346 754 q 258 731 346 731 l 229 731 q 201 722 201 731 z "},"6":{"ha":468,"x_min":38,"x_max":425,"o":"m 306 372 q 271 379 297 390 q 253 375 268 378 q 224 369 238 372 q 210 364 210 365 q 227 315 210 351 q 258 264 244 279 q 276 251 271 251 q 296 269 283 251 q 315 332 315 300 q 306 372 315 353 m 231 908 q 250 910 238 910 q 307 897 278 910 q 344 869 344 881 q 333 857 344 864 q 317 853 322 850 l 315 853 q 287 825 308 853 q 253 771 265 797 q 235 732 235 738 q 226 703 235 731 q 201 486 201 625 q 204 419 201 428 q 228 419 207 411 q 271 426 246 426 l 292 426 q 397 386 368 422 q 425 313 425 349 q 398 242 425 272 q 322 201 371 213 q 244 192 285 192 q 64 289 110 192 q 38 432 40 340 l 38 467 q 67 685 38 567 q 101 778 75 719 q 161 865 125 829 q 231 908 197 901 z "},"7":{"ha":546,"x_min":42,"x_max":506,"o":"m 369 867 q 399 874 386 874 q 447 863 414 874 q 492 843 479 853 q 503 830 501 835 q 506 806 506 825 q 499 721 506 774 q 475 499 486 635 q 470 460 474 479 q 465 417 467 440 q 449 292 463 365 q 433 185 436 219 q 392 81 422 99 q 368 83 379 75 q 322 226 329 113 q 315 279 319 265 q 310 401 310 301 q 313 476 310 463 q 321 533 314 483 q 331 594 328 583 q 358 725 338 626 q 363 747 361 735 q 367 766 365 758 q 369 775 369 774 l 369 778 l 371 781 q 368 782 371 782 q 211 710 361 782 q 86 656 100 656 q 58 663 74 656 q 42 675 42 669 q 150 754 42 692 q 263 814 176 769 q 369 867 350 858 z "},"8":{"ha":454,"x_min":36,"x_max":413,"o":"m 247 468 q 242 479 244 476 q 236 481 240 482 q 224 475 232 481 q 169 415 193 457 q 138 326 144 372 q 136 300 136 318 q 175 185 136 221 q 190 176 186 176 q 215 196 200 176 q 265 339 265 258 q 247 468 265 408 m 264 861 q 244 889 251 889 q 233 881 239 889 q 219 847 219 867 q 226 808 219 833 q 264 726 251 726 q 274 794 274 726 q 264 861 274 840 m 151 926 q 190 933 172 933 q 264 919 222 933 q 324 889 306 906 q 365 757 365 847 q 335 639 365 692 l 324 621 l 343 582 q 372 540 364 544 q 378 525 386 533 q 376 519 376 524 q 386 479 376 508 q 413 339 413 392 q 381 222 413 278 q 344 180 369 204 q 304 149 319 156 q 211 128 261 128 q 160 133 183 128 q 79 172 101 146 q 36 297 36 221 q 122 497 36 433 q 167 523 136 508 q 207 538 197 538 q 211 556 222 538 q 206 574 206 563 q 175 649 207 583 q 154 694 154 693 q 138 735 154 699 q 100 856 100 813 q 151 926 100 910 z "},"9":{"ha":399,"x_min":39,"x_max":361,"o":"m 147 933 q 172 935 154 935 q 253 926 215 935 q 326 883 306 915 q 336 832 336 869 q 326 783 336 797 q 296 772 317 771 q 270 779 276 772 q 258 814 264 786 q 221 886 243 886 q 213 882 217 886 q 194 835 207 876 q 181 736 181 788 q 183 678 181 681 q 188 676 185 676 q 237 700 201 676 q 278 739 272 724 l 285 754 l 315 754 l 332 754 q 356 740 351 754 q 361 667 361 726 q 360 622 361 656 q 360 563 360 588 q 346 256 358 317 q 333 171 335 192 q 325 111 328 119 q 319 96 322 99 q 307 93 317 93 q 276 116 286 93 q 256 207 265 139 q 244 386 244 289 q 258 636 244 488 q 263 678 263 667 q 247 668 263 681 q 176 639 213 639 l 158 639 q 88 653 110 642 q 50 693 65 665 q 39 732 39 714 q 40 746 39 735 q 40 765 40 757 q 147 933 47 917 z "},"\u0000":{"ha":347,"x_min":0,"x_max":0,"o":""},"\r":{"ha":347,"x_min":0,"x_max":0,"o":""}," ":{"ha":347,"x_min":0,"x_max":0,"o":""},"!":{"ha":232,"x_min":40,"x_max":190,"o":"m 54 182 l 67 200 l 100 199 q 140 190 135 196 q 146 171 146 186 q 135 125 146 150 q 110 103 125 103 q 74 111 96 103 q 46 126 51 119 q 40 144 40 133 q 54 182 40 161 m 132 906 q 158 911 139 913 q 190 879 190 907 l 190 871 q 182 763 186 839 q 159 564 176 679 q 131 408 142 449 q 103 364 118 364 l 99 364 q 81 383 88 367 q 74 447 74 397 l 74 526 q 89 775 75 710 q 132 906 110 881 z "},"\"":{"ha":289,"x_min":35,"x_max":251,"o":"m 36 775 q 50 786 40 786 q 79 779 56 786 q 106 764 99 772 q 114 733 114 756 q 108 669 114 728 q 85 581 99 582 l 83 581 q 65 596 75 581 q 50 632 56 611 q 35 763 35 693 q 36 769 35 765 l 36 775 m 196 782 q 221 789 203 792 q 245 779 239 786 q 251 750 251 772 q 246 676 251 722 q 235 611 240 617 q 229 610 233 610 q 200 638 214 610 q 190 714 190 658 q 196 782 190 772 z "},"'":{"ha":154,"x_min":35,"x_max":117,"o":"m 43 767 q 55 777 50 776 q 79 772 60 778 q 110 759 104 764 q 117 740 117 754 q 116 731 117 738 q 115 721 115 725 q 97 624 111 668 q 71 576 83 581 l 69 576 q 53 588 63 576 q 40 614 44 600 q 35 694 35 639 q 43 767 35 754 z "},"+":{"ha":435,"x_min":42,"x_max":394,"o":"m 186 440 q 101 462 161 440 q 42 501 42 483 q 122 515 42 513 q 190 519 189 518 q 196 578 193 522 q 217 707 200 689 q 235 714 222 714 q 258 708 246 714 q 271 699 268 704 q 275 676 274 694 q 279 582 279 631 q 283 513 279 515 q 326 506 288 508 q 379 492 364 504 q 389 472 394 479 q 360 461 385 467 q 307 447 350 458 l 278 439 l 278 386 q 267 182 278 267 q 256 161 264 161 q 240 171 249 161 q 209 261 218 193 q 197 385 200 329 q 186 440 193 440 z "},",":{"ha":158,"x_min":36,"x_max":124,"o":"m 56 249 q 81 257 64 260 q 114 247 104 254 q 124 221 124 239 q 118 182 124 215 q 85 73 107 125 q 51 18 64 21 l 50 18 q 36 104 36 18 q 56 249 36 218 z "},"-":{"ha":329,"x_min":29,"x_max":292,"o":"m 51 446 q 97 449 65 449 q 229 440 190 449 q 292 408 292 424 q 285 399 292 401 q 247 392 278 397 q 192 388 222 388 q 93 398 139 388 q 38 425 47 408 q 51 446 29 439 z "},".":{"ha":174,"x_min":36,"x_max":138,"o":"m 42 246 q 58 250 46 250 q 104 242 76 250 q 127 232 122 236 q 135 217 132 228 q 138 201 138 206 q 104 178 138 178 q 44 200 69 178 q 36 226 36 208 q 42 246 36 240 z "},"/":{"ha":376,"x_min":39,"x_max":335,"o":"m 239 789 q 271 806 256 806 q 304 796 285 806 q 322 788 317 790 q 331 779 326 785 q 335 765 335 774 q 313 682 335 749 q 221 404 242 458 q 172 258 214 385 q 106 92 129 121 q 93 81 97 82 q 76 83 89 81 q 40 154 44 90 q 40 165 40 158 q 39 176 39 172 q 75 393 39 224 q 117 558 100 511 q 239 789 174 721 z "},":":{"ha":186,"x_min":35,"x_max":150,"o":"m 35 218 q 46 243 35 232 q 71 254 57 254 q 93 253 83 254 q 135 246 126 251 q 144 224 144 240 q 135 197 144 206 q 124 183 124 186 q 96 175 124 175 q 81 176 86 175 q 49 191 64 179 q 35 218 35 203 m 44 636 q 35 668 35 654 q 69 693 35 693 q 76 692 71 693 q 85 692 82 692 q 144 665 135 688 q 150 646 150 656 q 126 615 150 626 q 92 607 108 607 q 44 636 58 607 z "},";":{"ha":185,"x_min":38,"x_max":150,"o":"m 79 318 q 115 326 86 326 q 144 319 138 326 q 147 303 147 314 q 126 185 147 253 q 75 96 103 113 q 68 94 72 94 q 40 121 47 94 q 38 150 38 128 q 50 246 38 192 q 79 318 63 300 m 50 664 q 78 671 57 671 q 121 663 100 671 q 142 646 142 656 q 144 638 142 644 q 146 629 146 632 q 144 600 150 619 q 121 582 140 585 q 115 581 119 582 q 108 581 111 581 q 47 601 65 581 q 42 628 42 608 q 50 664 42 656 z "},"=":{"ha":554,"x_min":38,"x_max":514,"o":"m 111 406 q 201 408 139 408 q 404 400 354 408 q 481 377 447 394 q 514 344 514 360 q 497 331 514 336 q 451 324 481 326 q 415 319 422 321 q 364 317 393 317 q 132 335 204 317 q 63 371 89 344 q 56 383 56 381 q 111 406 56 397 m 119 592 q 200 596 156 596 q 349 585 276 596 q 446 560 422 575 q 455 546 454 554 q 449 535 456 538 q 293 525 426 525 l 272 525 l 160 525 q 90 529 108 525 q 38 556 38 542 q 63 578 38 567 q 119 592 88 589 z "},"?":{"ha":486,"x_min":40,"x_max":446,"o":"m 182 147 q 189 165 182 154 q 213 176 196 176 q 271 147 239 176 q 290 117 290 128 q 283 103 290 110 q 267 99 279 99 q 211 113 240 99 q 182 147 182 128 m 200 892 q 225 893 208 893 q 367 829 297 893 q 446 682 446 756 q 414 575 446 631 q 356 457 364 482 q 319 379 331 385 q 306 354 315 378 q 283 322 296 332 q 260 314 272 314 q 204 357 225 314 q 193 438 193 381 q 201 525 193 497 q 263 635 219 578 q 274 653 274 649 q 278 661 274 657 q 301 694 285 668 q 328 772 328 735 q 313 801 328 797 q 293 803 308 803 q 207 789 246 803 q 97 710 128 761 q 83 699 90 699 q 58 713 74 699 l 40 729 l 43 754 q 95 844 47 804 q 200 892 143 883 z "},"@":{"ha":686,"x_min":39,"x_max":644,"o":"m 164 776 q 322 833 233 833 q 389 824 356 833 q 532 743 478 800 q 618 535 618 654 q 610 474 618 503 q 532 354 585 382 q 497 347 518 347 l 479 347 q 374 382 408 351 l 354 400 l 339 385 q 293 365 319 365 q 278 367 283 365 q 204 390 229 374 q 179 460 179 408 q 210 582 179 521 q 300 663 249 663 q 346 654 321 663 q 435 551 417 631 q 438 531 438 538 q 408 486 438 486 q 390 495 396 486 q 382 533 385 504 q 365 595 378 565 q 343 625 353 625 q 299 575 321 625 q 276 472 276 525 q 279 444 276 444 q 301 465 283 444 q 319 483 314 479 q 339 486 325 486 q 397 474 376 486 q 438 424 417 461 q 458 399 450 401 l 460 399 q 504 468 479 399 q 516 508 514 494 q 518 568 518 522 q 504 671 518 629 q 446 768 479 743 q 390 783 426 783 q 244 717 307 783 q 186 624 207 678 q 165 511 165 572 q 253 264 165 372 q 283 229 281 229 q 299 218 285 229 q 363 189 331 189 l 367 189 q 507 300 407 196 q 633 410 613 410 l 636 410 q 644 397 644 408 q 588 290 644 367 q 510 190 532 213 q 411 146 478 158 q 368 142 392 142 q 250 156 306 142 q 97 274 154 182 q 39 496 39 367 q 53 607 39 565 q 98 699 67 651 q 164 776 129 747 z "},"A":{"ha":586,"x_min":43,"x_max":544,"o":"m 321 632 q 317 651 319 640 q 312 667 314 661 q 310 674 310 672 q 301 669 304 679 q 300 663 300 667 q 292 635 300 653 q 283 608 285 617 q 251 499 282 603 q 232 428 232 436 q 244 424 232 424 q 281 428 254 424 q 315 432 308 432 q 336 434 325 433 q 352 435 347 435 q 362 436 357 435 q 369 440 367 438 q 371 446 371 442 q 364 471 371 450 q 321 632 346 526 m 260 856 q 268 857 261 857 q 307 846 283 857 q 336 825 331 835 q 338 794 342 813 q 343 760 335 771 q 375 704 357 742 q 443 542 397 660 q 535 229 499 393 q 544 157 544 193 q 543 139 544 143 q 529 126 542 126 q 504 143 517 126 q 444 265 479 172 q 410 347 422 318 q 379 396 386 393 q 357 392 374 396 q 296 386 331 386 q 247 390 268 386 q 222 392 225 394 q 176 269 218 388 q 158 212 171 254 q 135 140 146 169 q 114 97 124 111 q 85 85 106 85 q 44 117 50 85 q 44 126 44 119 q 43 139 43 133 q 53 265 43 183 q 57 306 54 276 q 61 344 60 335 q 154 671 68 457 q 213 790 179 732 q 260 856 246 849 z "},"B":{"ha":560,"x_min":39,"x_max":519,"o":"m 274 494 q 221 510 246 510 q 214 507 214 510 l 214 497 q 215 469 214 486 q 215 438 215 453 q 208 325 215 374 q 204 282 204 297 q 206 271 204 272 q 283 213 215 256 q 367 171 350 171 q 394 200 382 171 q 406 265 406 229 q 326 451 406 372 q 274 494 300 478 m 340 779 q 329 797 336 797 q 290 779 324 797 q 206 697 232 746 l 194 678 l 200 632 q 208 583 206 586 l 210 583 q 272 622 222 583 q 323 686 304 647 q 342 763 342 725 q 340 779 342 774 m 253 844 q 297 851 274 851 q 442 804 386 851 q 474 715 474 776 q 429 618 474 660 q 376 577 417 606 q 314 538 335 549 q 300 528 300 529 q 336 511 300 524 q 469 415 418 479 q 519 283 519 350 q 485 190 519 229 q 440 157 464 167 q 374 146 417 147 l 326 144 l 290 161 q 229 200 250 181 q 201 219 204 222 q 199 207 199 218 q 185 176 199 185 q 136 167 171 167 q 107 178 114 167 q 88 240 100 189 q 42 457 50 386 q 39 561 39 496 q 44 739 39 681 q 63 825 53 804 q 93 846 72 846 q 111 844 104 846 q 168 807 157 835 q 189 801 178 785 q 253 844 203 824 z "},"C":{"ha":499,"x_min":39,"x_max":461,"o":"m 199 861 q 246 868 219 868 q 383 833 318 868 q 443 742 443 801 q 433 701 443 717 q 422 689 426 690 q 399 689 417 688 q 367 699 375 690 q 351 735 358 707 q 319 801 335 801 q 296 786 313 801 q 272 758 279 771 q 210 538 210 660 q 210 524 210 533 q 211 508 211 514 q 254 308 218 379 q 274 276 269 276 q 278 271 278 276 q 286 257 278 264 q 301 253 294 250 q 324 275 308 256 q 383 349 367 332 q 438 369 408 369 q 458 358 457 369 q 451 322 461 347 q 386 222 426 250 q 269 193 346 193 l 250 193 q 174 207 203 194 q 99 265 132 224 q 57 353 67 306 q 39 517 39 444 q 67 707 39 615 q 88 754 71 721 q 113 793 106 788 q 121 806 117 797 q 153 835 126 815 q 199 861 179 854 z "},"D":{"ha":544,"x_min":39,"x_max":511,"o":"m 321 709 q 308 723 321 709 q 268 747 294 738 q 204 757 242 757 q 175 751 181 757 q 178 714 172 747 q 213 403 213 538 q 203 304 213 335 q 194 263 194 275 q 197 256 194 256 q 252 299 207 256 q 315 371 297 343 q 364 472 340 408 q 375 547 375 508 q 357 653 375 599 q 321 709 347 681 m 150 800 q 165 803 153 803 q 256 788 207 803 q 501 597 458 724 q 511 535 511 568 q 479 417 511 481 q 413 336 460 379 q 314 265 367 293 q 270 239 310 263 q 211 206 231 215 q 168 193 185 193 q 140 194 153 193 q 95 204 106 196 q 76 243 85 213 q 64 281 69 271 q 44 336 49 304 q 39 450 39 368 q 79 772 39 689 l 90 796 l 118 796 q 150 800 146 796 z "},"E":{"ha":489,"x_min":39,"x_max":449,"o":"m 90 840 l 214 840 q 417 819 369 835 q 447 800 449 808 q 444 796 447 797 q 338 790 433 790 q 246 793 293 790 q 182 797 203 797 l 179 797 q 188 538 175 789 q 194 481 190 490 q 233 485 197 475 q 321 503 304 503 q 328 501 326 503 q 329 499 329 500 q 294 472 329 489 q 226 450 260 456 q 197 442 197 444 q 218 260 197 419 q 232 216 222 226 q 268 206 242 206 q 322 229 278 206 q 381 267 365 253 q 394 277 392 278 q 397 264 397 276 q 328 199 397 236 q 178 164 261 164 q 119 171 140 164 q 63 214 76 185 q 42 344 50 243 q 39 411 39 389 q 49 554 39 478 q 97 797 67 715 q 96 826 104 818 q 90 840 88 835 z "},"F":{"ha":453,"x_min":39,"x_max":410,"o":"m 107 839 q 174 840 129 840 q 368 821 285 840 q 410 799 410 811 q 407 793 410 794 q 261 785 393 785 q 235 785 251 785 q 211 786 218 786 l 153 788 l 154 772 q 165 649 157 758 q 174 524 172 540 l 175 500 l 196 503 q 250 514 208 504 q 357 531 317 531 l 364 529 q 365 526 365 528 q 313 496 365 515 q 221 474 260 476 q 181 465 185 471 q 175 422 175 458 l 175 378 q 169 251 175 279 q 161 197 161 213 q 144 142 161 151 q 122 138 136 138 q 99 143 103 138 q 56 276 86 160 q 40 476 40 338 q 53 682 40 599 q 86 797 65 764 l 63 808 q 39 825 39 818 q 107 839 39 836 z "},"G":{"ha":607,"x_min":39,"x_max":565,"o":"m 267 910 q 300 911 269 911 l 304 911 q 403 891 347 911 q 483 846 458 871 q 518 774 518 811 q 515 756 518 760 q 503 751 513 753 l 500 751 q 439 790 461 751 q 408 835 426 814 q 383 857 390 857 q 315 817 358 857 q 251 738 271 778 q 215 544 215 663 q 219 476 215 510 q 240 368 229 401 q 245 353 242 365 q 250 336 249 342 q 261 313 253 321 q 269 300 269 304 q 278 276 269 292 q 358 178 311 208 l 371 171 l 385 185 q 418 238 399 201 q 463 340 435 269 q 490 418 490 411 q 446 421 490 421 q 346 439 364 421 q 353 454 339 446 q 447 461 364 461 q 565 444 565 460 q 546 429 565 435 q 531 421 533 425 q 526 399 528 417 q 506 291 522 356 q 476 201 489 226 q 433 151 456 164 q 325 129 386 129 l 304 129 q 190 165 238 132 q 78 325 114 215 q 39 539 39 440 q 132 828 42 728 q 244 903 189 888 q 254 906 249 904 q 263 908 260 907 q 267 910 265 910 z "},"H":{"ha":613,"x_min":39,"x_max":579,"o":"m 86 847 q 106 853 92 853 q 157 807 139 853 q 192 518 182 738 l 193 494 l 210 496 q 230 497 213 496 q 272 497 247 497 q 321 497 297 497 q 415 501 415 500 q 421 558 418 513 q 444 730 429 651 q 472 821 460 808 q 488 828 479 828 q 531 806 517 828 q 564 678 547 782 q 579 494 579 586 q 568 372 579 417 q 557 299 558 326 q 524 196 551 224 q 503 185 514 185 q 479 194 490 185 q 443 296 456 215 q 430 354 439 322 q 417 433 421 386 l 414 467 q 339 465 407 467 q 246 463 271 463 l 231 463 q 194 458 194 467 q 190 388 192 425 q 181 286 189 342 q 167 214 174 231 q 161 188 161 200 q 152 167 161 175 q 131 158 143 158 q 108 167 119 158 q 74 232 90 181 q 49 349 57 283 q 39 590 39 433 q 42 678 39 661 q 86 847 60 815 z "},"I":{"ha":244,"x_min":38,"x_max":211,"o":"m 61 737 q 68 759 61 737 q 86 783 75 781 q 106 786 97 786 q 172 764 157 786 q 204 542 190 740 q 211 397 211 456 q 207 253 211 340 q 193 168 203 178 q 153 153 179 153 q 114 167 128 153 q 85 238 99 182 q 64 314 67 308 q 38 550 38 386 q 42 636 38 600 q 61 737 47 693 z "},"J":{"ha":468,"x_min":44,"x_max":435,"o":"m 286 867 q 318 865 293 871 q 354 843 343 858 q 382 774 365 828 q 396 724 388 751 q 408 683 404 697 q 418 642 413 669 q 429 575 424 614 q 435 424 435 533 q 432 336 435 361 q 401 192 422 258 q 350 82 374 106 q 297 35 319 49 q 232 10 274 21 q 176 1 200 1 q 100 32 131 1 q 46 147 51 82 q 45 157 46 151 q 44 165 44 163 q 60 207 44 190 q 88 221 69 221 q 121 206 106 221 q 143 171 136 190 q 170 134 150 154 q 203 113 190 114 q 207 112 204 113 q 211 111 210 111 q 227 122 222 111 q 236 164 232 132 q 249 490 246 226 q 257 735 250 649 q 268 817 261 775 q 286 867 274 858 z "},"K":{"ha":578,"x_min":39,"x_max":536,"o":"m 97 819 q 121 828 103 828 q 169 807 153 828 q 187 742 178 793 q 201 646 196 690 q 210 601 207 601 q 310 692 213 601 l 407 783 q 443 789 418 792 q 464 786 458 788 q 472 781 469 785 q 474 769 474 778 q 353 606 474 747 q 326 574 342 592 q 299 543 310 556 q 285 525 289 531 l 265 501 l 289 481 q 482 279 444 336 q 513 238 496 258 q 536 194 536 206 q 510 182 536 182 q 449 213 479 182 q 382 274 444 218 q 315 336 319 331 q 275 381 304 346 q 246 419 246 417 q 232 444 246 424 q 215 465 218 465 q 207 396 208 465 q 203 333 206 360 q 197 276 201 307 q 190 215 193 244 q 176 136 188 157 q 150 111 165 114 q 110 115 125 103 q 88 147 97 124 q 70 210 79 171 q 58 260 61 249 q 46 318 49 292 q 40 351 43 346 q 39 397 39 354 q 42 511 39 464 q 97 819 60 758 z "},"L":{"ha":464,"x_min":40,"x_max":422,"o":"m 75 783 q 96 789 81 792 q 146 758 133 782 q 181 597 165 724 q 213 367 201 472 q 224 236 222 289 q 226 181 225 193 q 236 169 228 169 q 261 178 239 169 q 331 197 282 186 q 400 207 381 207 l 403 207 q 422 199 422 204 q 395 176 422 192 q 342 151 368 160 q 183 121 242 121 q 140 125 161 121 q 94 143 104 132 q 54 272 68 169 q 40 500 40 374 q 75 783 40 744 z "},"M":{"ha":746,"x_min":39,"x_max":713,"o":"m 100 811 q 126 824 107 824 q 181 807 171 824 q 188 769 185 800 l 189 742 l 225 706 q 378 533 343 533 q 468 626 386 533 q 556 736 550 718 q 568 761 563 757 q 590 765 574 765 q 642 754 625 765 q 669 713 658 743 q 713 401 713 588 q 693 239 713 303 q 657 158 674 176 q 629 144 644 144 q 579 194 597 144 q 544 313 551 264 q 538 492 538 361 q 535 628 538 628 q 482 558 532 628 q 426 479 432 489 q 396 461 417 461 q 378 463 385 461 q 309 488 336 468 q 235 567 282 507 q 201 604 204 604 q 197 507 197 604 q 183 304 197 360 q 172 247 175 269 q 151 149 161 167 q 107 132 142 132 q 72 144 81 132 q 58 204 64 156 q 46 282 53 244 q 39 389 39 321 q 68 706 39 574 q 71 717 69 710 q 74 730 72 725 q 75 736 75 735 q 84 773 75 746 q 100 811 93 800 z "},"N":{"ha":638,"x_min":39,"x_max":603,"o":"m 503 796 q 535 797 504 800 q 592 776 578 793 q 603 607 603 764 l 603 542 q 590 328 601 365 q 582 288 583 301 q 565 194 572 207 q 564 172 558 182 q 567 164 567 164 q 532 150 567 154 q 508 149 522 149 q 474 158 488 149 q 426 201 460 168 q 350 290 381 247 q 196 549 293 374 q 189 562 192 557 q 185 565 186 567 l 182 463 q 171 326 181 367 q 160 265 161 283 q 147 189 154 206 q 139 176 143 178 q 118 174 135 174 q 81 188 92 174 q 65 250 71 203 q 52 317 63 268 q 40 397 42 365 q 39 443 39 411 q 60 713 39 576 q 81 781 67 757 q 108 790 86 790 q 139 786 122 790 q 172 747 169 778 q 194 700 176 725 q 257 610 247 625 q 279 576 267 596 q 299 544 292 556 q 308 531 306 533 q 432 357 383 426 q 486 288 482 288 q 488 290 488 288 q 486 300 488 296 q 475 424 475 347 q 476 447 475 431 q 476 474 476 464 q 488 660 478 547 q 503 796 497 788 z "},"O":{"ha":563,"x_min":39,"x_max":531,"o":"m 207 868 q 249 874 224 874 q 393 826 339 874 q 407 808 407 814 q 400 804 407 804 q 378 810 390 804 q 351 817 361 817 q 314 796 335 817 q 258 686 279 758 q 235 493 235 600 q 263 294 235 371 q 288 242 272 267 q 310 217 303 217 q 386 339 331 217 q 438 583 438 454 q 428 693 438 628 q 411 813 411 794 q 414 826 411 818 q 428 838 418 838 q 454 819 439 838 q 489 749 465 807 q 524 647 513 692 q 531 571 531 617 q 507 371 531 457 q 486 308 501 350 q 465 258 471 267 q 456 239 458 249 q 430 201 450 224 q 394 168 410 178 q 258 144 347 144 q 128 189 182 144 q 51 315 74 233 q 39 447 39 361 q 50 571 39 526 q 94 728 61 658 q 107 756 107 753 q 122 788 107 760 q 163 839 138 815 q 207 868 189 863 z "},"P":{"ha":531,"x_min":39,"x_max":492,"o":"m 308 743 q 281 756 297 756 q 204 740 232 756 q 196 730 197 736 q 197 701 194 724 q 203 628 203 633 q 203 590 203 617 q 206 556 204 564 q 208 506 208 522 l 208 486 l 231 476 q 263 465 256 465 q 290 480 272 465 q 317 511 307 494 q 351 619 351 567 q 308 743 351 697 m 74 879 q 84 891 79 889 q 106 890 89 893 q 144 878 131 889 q 168 844 157 868 l 181 817 q 258 836 219 835 l 269 836 q 442 768 374 836 q 492 650 492 718 q 475 568 492 611 q 460 534 467 544 q 444 510 454 524 q 426 486 433 496 q 379 446 408 460 q 279 424 331 424 q 243 426 268 424 q 208 428 211 431 q 200 371 206 425 q 168 168 182 190 q 144 156 163 158 q 140 155 143 156 q 136 154 138 154 q 111 168 121 154 q 89 222 101 182 q 42 461 64 301 q 39 603 39 483 q 42 735 39 724 q 46 767 43 739 q 74 879 54 849 z "},"Q":{"ha":588,"x_min":39,"x_max":544,"o":"m 108 806 q 274 911 164 911 q 457 851 353 911 q 515 810 489 833 q 540 775 540 786 q 532 769 540 769 q 460 807 501 769 q 375 854 408 854 q 344 847 363 854 q 293 794 318 836 q 263 710 268 753 q 256 674 261 697 q 247 618 251 651 q 239 504 239 553 q 264 347 239 419 q 317 257 288 283 q 350 256 335 240 q 357 278 360 265 q 338 335 354 285 q 321 421 322 376 q 319 451 319 435 q 328 471 319 465 q 360 478 338 478 q 382 475 376 478 q 403 454 388 472 q 428 433 424 429 q 443 503 431 438 q 461 619 456 568 q 489 738 475 721 q 517 733 501 753 q 528 665 528 718 q 501 428 528 582 q 489 354 490 361 q 501 321 488 343 q 532 246 526 285 q 539 218 533 236 q 544 192 544 200 q 526 165 544 175 q 489 154 504 154 q 446 175 469 154 q 438 182 443 178 q 426 192 433 186 q 417 200 419 197 q 398 213 403 211 q 381 210 393 214 q 254 186 315 186 q 149 216 194 186 q 81 294 104 246 q 47 385 60 339 q 39 493 39 422 q 46 599 39 554 q 108 806 69 729 z "},"R":{"ha":558,"x_min":39,"x_max":517,"o":"m 322 779 q 313 803 318 803 q 267 782 303 803 q 215 746 232 761 l 192 724 l 194 688 q 200 600 199 629 q 206 543 203 546 l 207 543 q 229 556 213 543 q 253 581 246 569 q 260 590 256 585 q 269 600 265 596 q 276 610 272 604 q 282 621 279 615 q 289 635 283 625 q 296 647 294 644 q 324 753 324 694 q 322 779 324 771 m 247 843 q 301 853 268 853 q 390 836 346 853 q 458 792 433 819 q 504 672 504 742 q 474 582 504 629 q 408 520 451 546 q 314 494 364 494 q 307 478 282 494 q 396 385 349 446 q 507 225 464 301 q 517 193 517 207 q 483 161 517 161 q 425 185 454 161 q 320 286 388 211 q 225 406 253 361 q 211 419 215 419 q 206 383 206 419 l 206 374 q 181 218 203 244 q 169 190 175 207 q 126 146 158 151 q 120 145 124 146 q 115 144 117 144 q 90 155 100 144 q 67 193 81 165 q 44 263 49 229 q 39 381 39 297 q 51 632 39 539 q 107 829 76 824 l 117 829 q 167 814 154 829 l 178 803 l 201 818 q 247 843 217 829 z "},"S":{"ha":553,"x_min":44,"x_max":514,"o":"m 200 900 q 235 903 222 903 q 332 887 282 903 q 400 849 382 871 q 426 789 426 818 q 421 768 426 775 q 386 754 410 750 q 361 781 372 757 q 331 826 350 803 q 306 850 313 850 q 269 815 293 850 q 260 760 260 801 q 263 726 260 736 q 372 579 275 676 q 481 450 453 501 q 507 386 497 419 q 514 336 514 361 q 489 236 514 283 q 451 190 479 218 q 404 154 422 163 q 236 114 317 114 q 147 132 185 114 q 96 168 114 149 q 65 222 78 188 q 44 297 44 279 q 47 311 44 307 q 83 319 58 336 q 117 279 94 314 q 243 172 172 197 l 265 165 l 274 176 q 300 269 300 211 q 292 332 300 300 q 253 434 276 389 q 176 556 229 479 q 102 672 119 633 q 85 756 85 711 q 116 851 85 813 q 200 900 147 890 z "},"T":{"ha":553,"x_min":44,"x_max":510,"o":"m 72 828 q 101 829 81 829 q 289 803 151 829 q 363 790 324 796 q 506 753 488 774 q 510 746 510 749 q 475 732 510 732 q 456 738 460 732 q 389 749 453 743 q 331 751 339 751 l 324 751 q 329 733 321 749 q 357 622 342 704 q 383 343 383 475 q 382 256 383 288 q 376 163 379 176 q 351 146 372 149 q 346 145 350 146 q 339 144 342 144 q 306 163 318 144 q 281 231 293 181 q 269 274 278 242 q 258 319 261 306 q 249 357 254 332 q 241 405 244 382 q 236 456 238 428 q 229 526 233 500 q 226 632 226 550 q 232 750 226 740 q 233 764 238 760 q 208 771 228 768 q 140 785 192 774 q 79 799 89 797 q 44 815 44 807 q 72 828 44 824 z "},"U":{"ha":642,"x_min":39,"x_max":601,"o":"m 88 850 q 106 853 92 853 q 148 847 125 853 q 176 832 171 840 q 183 753 178 829 q 193 631 186 675 q 229 451 206 550 q 268 324 253 351 q 318 271 289 286 q 335 264 331 264 q 349 271 339 264 q 422 378 392 297 q 482 625 451 458 q 490 697 485 639 q 504 792 496 756 q 525 839 513 829 q 553 844 532 844 q 582 839 575 844 q 601 774 601 819 q 578 571 601 724 q 517 322 546 381 q 358 186 464 214 q 314 174 324 178 q 274 171 307 171 q 185 181 206 171 q 76 313 107 217 q 39 617 39 429 q 44 714 39 676 q 88 850 61 833 z "},"V":{"ha":600,"x_min":44,"x_max":558,"o":"m 61 833 q 81 836 75 836 q 136 789 113 836 q 222 582 174 710 q 244 524 229 563 q 272 453 260 485 q 292 419 288 419 q 300 438 297 425 q 314 473 300 442 q 328 510 328 504 q 381 622 335 522 q 449 757 428 722 q 461 778 457 769 q 488 810 467 789 q 506 826 504 825 q 514 824 508 828 q 532 815 519 815 q 553 810 547 815 q 558 790 558 806 q 558 783 558 789 q 557 774 557 776 q 522 600 553 718 q 481 463 519 585 q 404 292 440 339 q 381 259 392 276 q 360 228 369 242 q 343 203 343 208 q 292 179 343 181 l 276 179 q 242 190 253 179 q 213 239 231 200 q 151 408 185 299 q 135 465 146 428 q 122 507 124 501 q 47 782 61 701 q 44 807 44 801 q 61 833 44 831 z "},"W":{"ha":908,"x_min":40,"x_max":872,"o":"m 44 799 q 90 828 54 828 q 99 827 93 828 q 107 826 104 826 q 146 817 135 825 q 171 779 157 808 q 239 571 197 722 q 321 318 311 318 q 365 474 331 318 q 413 674 408 664 q 472 697 424 697 q 581 629 531 697 q 724 382 644 540 q 744 347 742 347 q 756 378 747 347 q 772 444 757 386 q 799 551 788 501 q 814 621 811 600 q 840 750 829 713 q 860 782 851 782 q 872 704 872 782 q 854 458 872 604 q 827 269 836 310 q 799 206 818 228 q 734 158 774 179 q 667 136 694 138 l 660 136 q 606 164 632 136 q 517 356 560 217 q 469 538 474 510 q 446 639 450 639 q 418 558 435 639 q 385 324 401 481 q 367 218 374 228 q 322 190 357 203 q 256 178 288 178 q 213 193 233 178 q 147 279 174 225 l 135 304 q 89 444 118 335 q 40 758 40 626 q 44 799 40 783 z "},"X":{"ha":588,"x_min":44,"x_max":547,"o":"m 44 794 q 90 819 44 819 q 112 813 103 819 q 153 768 121 806 q 219 688 203 713 q 246 660 242 660 q 264 683 249 660 q 354 800 329 792 q 369 801 357 801 q 438 786 417 801 q 446 763 447 778 q 417 674 442 729 q 401 639 414 667 q 381 593 389 611 l 365 557 l 354 532 q 349 501 344 513 q 464 322 363 476 q 544 163 538 211 q 535 131 547 143 l 521 117 l 507 125 q 354 290 463 150 q 283 375 288 375 q 217 274 271 375 q 151 161 169 181 q 115 149 139 149 q 94 151 99 149 q 85 163 90 153 q 79 193 79 172 q 94 279 79 225 q 114 357 111 339 q 142 449 121 392 q 171 514 163 506 q 175 524 175 518 q 160 554 175 533 q 88 682 132 596 q 44 794 44 768 z "},"Y":{"ha":543,"x_min":44,"x_max":501,"o":"m 401 789 q 439 799 411 799 q 499 775 488 799 q 501 746 501 769 q 469 542 501 665 q 411 339 426 364 q 392 278 406 326 q 304 33 347 118 q 269 -21 276 -21 l 268 -19 q 265 -19 267 -19 q 247 103 247 -14 q 257 247 247 183 q 269 340 267 303 q 274 381 272 376 q 257 399 275 389 q 189 463 242 408 q 121 540 136 517 q 58 689 82 597 q 44 753 44 743 q 53 765 44 761 q 67 768 58 768 q 125 747 100 768 q 210 642 158 721 q 282 507 261 563 q 293 486 290 486 q 296 489 296 486 l 335 628 q 401 789 369 757 z "},"Z":{"ha":593,"x_min":44,"x_max":551,"o":"m 369 893 q 433 903 399 903 l 458 903 q 531 893 511 901 q 551 876 551 883 q 532 846 551 871 q 432 689 492 794 q 272 375 347 536 q 260 349 268 365 q 250 328 251 332 q 243 308 243 311 l 232 283 q 193 179 193 196 q 196 172 193 175 l 197 172 q 389 297 213 172 q 501 358 468 354 l 522 361 l 515 349 q 490 319 506 333 q 465 296 485 315 q 436 268 444 276 q 309 168 363 199 q 185 125 256 138 q 125 118 147 118 q 56 140 78 118 q 44 167 44 151 q 61 231 44 185 q 149 421 78 279 q 268 647 219 563 q 275 659 271 653 q 282 669 279 665 q 285 674 285 672 q 357 806 332 763 q 364 826 367 824 l 363 826 q 285 807 351 826 q 179 778 265 801 q 107 769 146 769 q 58 778 67 769 q 64 794 51 785 q 98 809 71 800 q 158 828 125 818 q 196 840 190 838 q 369 893 265 864 z "},"a":{"ha":624,"x_min":39,"x_max":582,"o":"m 231 732 q 247 733 236 733 q 361 688 308 733 q 403 607 403 653 q 390 589 403 589 q 383 590 386 589 q 356 625 364 596 q 338 666 351 643 q 317 693 325 689 q 304 696 311 696 q 250 668 278 696 q 178 467 189 607 q 176 407 176 450 q 182 314 176 324 q 185 313 182 313 q 239 408 189 313 q 318 556 299 521 q 350 586 336 585 l 353 586 q 390 578 367 586 q 425 561 414 571 q 441 528 438 551 q 444 433 444 504 q 447 294 444 325 q 475 163 456 190 q 483 160 479 158 q 499 179 488 163 q 543 260 514 199 q 578 318 572 318 q 582 310 582 318 q 565 235 582 297 q 517 142 544 163 q 469 129 501 129 q 428 136 442 129 q 399 167 415 143 q 357 356 364 219 q 351 408 354 408 q 313 325 350 408 q 246 197 265 217 q 165 176 226 176 q 85 188 110 176 q 49 235 60 200 q 39 347 39 264 q 43 417 39 394 q 67 525 58 503 q 93 593 74 550 q 153 683 115 644 q 231 732 192 722 z "},"b":{"ha":500,"x_min":39,"x_max":464,"o":"m 339 413 q 306 522 339 489 l 293 535 l 275 524 q 215 440 242 499 q 207 406 207 422 q 210 354 207 404 q 215 274 215 282 l 215 260 l 290 260 l 303 278 q 326 332 311 290 q 339 413 339 367 m 97 913 q 125 915 106 915 q 146 913 143 915 q 165 856 160 904 q 179 722 174 800 q 185 666 181 710 q 192 594 190 622 q 206 510 197 510 q 213 515 210 510 q 241 541 215 525 q 293 565 267 557 q 357 578 329 578 q 440 528 414 578 q 464 435 464 485 q 404 296 464 356 q 236 226 335 226 l 217 226 l 214 197 q 206 156 211 171 q 179 133 200 144 q 139 118 158 121 q 111 126 121 115 q 69 251 86 158 q 66 270 68 260 q 62 290 64 281 q 60 300 60 299 q 39 611 39 442 q 42 728 39 690 q 58 869 47 833 q 97 913 69 906 z "},"c":{"ha":413,"x_min":39,"x_max":371,"o":"m 204 639 q 238 642 229 642 q 292 628 272 642 q 325 583 311 614 q 335 550 335 564 q 321 529 335 533 q 314 528 318 528 q 271 564 304 528 q 222 603 233 603 q 213 597 217 603 q 182 496 194 576 q 176 424 176 463 q 199 306 176 354 q 220 274 204 292 q 243 256 236 256 q 301 297 251 256 q 363 338 351 338 q 367 335 364 338 q 371 324 371 328 q 331 268 371 307 q 221 203 279 218 q 164 196 194 196 q 39 342 49 196 l 39 358 q 63 497 39 422 q 119 601 88 571 q 204 639 150 631 z "},"d":{"ha":503,"x_min":40,"x_max":469,"o":"m 206 476 q 169 485 181 485 q 149 474 157 485 q 131 403 131 447 q 147 321 131 360 q 189 271 164 282 q 206 267 200 265 q 228 279 211 268 q 319 354 251 296 q 321 357 321 356 q 307 390 321 365 q 281 428 293 414 q 206 476 247 461 m 40 347 q 78 463 40 422 q 186 503 115 503 q 303 454 246 503 q 326 433 324 433 q 331 478 328 433 q 338 572 335 522 q 340 624 340 621 q 346 686 343 660 q 397 906 367 896 q 411 907 400 907 q 451 903 447 907 q 460 876 456 899 q 467 749 465 857 q 468 622 467 635 q 469 469 469 603 q 468 324 469 340 q 449 176 460 217 q 427 141 443 153 q 375 121 411 129 q 356 118 358 118 q 335 139 339 118 q 328 231 331 160 q 324 315 325 314 q 293 286 322 317 q 222 242 264 257 q 139 224 176 224 q 40 347 40 224 z "},"e":{"ha":451,"x_min":39,"x_max":410,"o":"m 197 568 q 185 585 192 585 q 181 581 182 583 q 163 504 167 539 l 160 476 q 189 479 183 471 q 203 533 203 500 q 197 568 203 556 m 179 635 q 221 640 213 640 q 236 639 229 640 q 274 607 260 633 q 288 542 288 581 q 261 463 288 496 q 188 432 246 442 l 158 426 l 157 411 q 164 350 156 401 q 219 233 183 256 l 233 225 l 254 249 q 324 335 281 275 q 404 440 400 440 l 407 435 q 410 419 410 426 q 393 363 410 394 q 303 226 340 261 q 163 171 240 171 q 124 178 142 171 q 62 247 85 194 q 39 371 39 300 q 40 383 39 375 q 40 397 40 392 q 76 572 47 524 q 179 635 104 621 z "},"f":{"ha":478,"x_min":44,"x_max":436,"o":"m 239 881 q 322 903 261 903 q 381 890 361 903 q 411 847 411 871 q 408 836 411 844 q 358 815 396 815 q 344 825 344 815 q 336 846 344 839 q 329 842 332 849 q 310 742 321 825 q 297 588 299 658 l 297 558 l 365 560 l 399 560 q 436 556 436 560 q 350 529 436 542 l 294 521 l 293 482 q 279 279 290 354 q 267 172 267 174 q 265 147 265 164 q 263 124 264 129 q 260 108 263 119 q 256 94 258 97 q 248 85 253 90 q 236 76 243 79 q 219 71 229 74 q 217 69 218 71 l 214 69 q 190 143 197 69 q 178 235 189 154 q 165 438 167 292 l 165 499 l 114 499 l 85 499 q 44 506 44 499 q 56 517 44 510 q 107 531 61 521 q 167 543 153 542 l 167 590 q 181 728 167 631 q 239 881 196 844 z "},"g":{"ha":521,"x_min":39,"x_max":489,"o":"m 203 376 q 265 440 222 376 q 307 547 307 503 l 307 575 l 294 575 q 279 581 286 575 q 265 598 272 588 q 254 611 257 608 q 229 631 238 624 l 214 643 l 204 625 q 186 583 194 607 q 174 476 174 543 l 174 469 q 185 403 176 431 q 203 376 193 376 m 363 697 q 400 701 383 701 q 428 696 421 701 q 442 674 435 692 q 450 653 449 656 q 486 461 471 596 q 489 358 489 439 q 486 254 489 282 q 379 -39 468 64 q 288 -111 340 -83 q 192 -139 236 -139 q 153 -131 169 -139 q 102 -83 133 -121 q 61 -19 71 -46 q 46 25 49 11 q 43 46 43 39 q 63 93 43 81 q 83 99 72 99 q 150 28 121 99 q 175 -28 165 -11 q 206 -66 185 -44 q 233 -87 226 -87 q 253 -70 239 -87 q 278 -35 268 -53 q 308 69 296 1 q 313 169 313 100 l 313 235 q 308 403 310 383 l 306 440 l 290 415 q 242 363 267 379 q 157 343 214 343 q 104 351 125 343 q 39 471 39 379 q 90 635 39 563 q 171 685 115 668 q 233 693 203 693 q 311 672 286 693 q 324 676 317 667 q 363 697 331 692 z "},"h":{"ha":411,"x_min":39,"x_max":376,"o":"m 93 913 q 124 921 101 921 q 142 918 131 921 q 171 786 165 908 q 179 700 176 710 q 181 592 181 696 q 185 489 181 489 q 199 510 186 489 q 234 554 213 531 q 278 583 256 578 q 314 588 299 588 q 350 574 338 588 q 371 525 363 560 q 376 417 376 503 q 369 296 376 321 q 342 197 350 214 q 319 176 335 179 q 315 176 318 176 q 311 175 313 175 q 294 185 300 175 q 283 226 289 196 q 276 328 276 271 q 278 442 276 390 l 278 469 q 271 551 278 536 l 253 533 q 190 442 219 497 q 181 347 182 424 q 167 236 178 261 q 115 204 156 211 q 85 206 93 200 q 51 304 64 219 q 39 501 39 389 q 43 628 39 565 q 49 693 47 663 q 53 740 51 739 l 53 747 q 56 763 54 753 q 57 783 57 774 q 93 913 61 881 z "},"i":{"ha":192,"x_min":39,"x_max":158,"o":"m 72 604 q 108 613 81 613 q 142 603 135 613 q 153 564 149 590 q 157 469 157 540 q 151 324 157 385 q 134 246 149 289 q 108 192 119 203 q 89 182 99 182 q 58 228 74 182 q 42 356 42 275 l 42 393 q 72 604 46 578 m 61 807 q 76 811 72 807 q 111 815 81 815 q 158 788 158 815 q 129 746 158 757 q 96 740 118 740 q 43 757 53 740 q 39 775 39 765 q 45 797 39 788 q 61 807 51 807 z "},"j":{"ha":447,"x_min":44,"x_max":414,"o":"m 261 622 q 329 638 276 638 q 367 631 357 638 q 388 595 376 621 q 400 551 399 569 q 414 414 411 492 l 414 382 q 381 175 414 257 q 331 95 364 132 q 260 40 297 58 q 239 30 254 38 q 216 19 224 22 q 195 13 208 17 q 171 10 182 10 q 153 11 160 10 q 83 63 122 17 q 44 140 44 110 q 78 181 44 167 q 107 188 96 188 q 156 133 139 188 q 172 99 161 118 q 186 79 183 79 q 199 76 192 79 q 210 74 207 74 q 233 97 224 74 q 260 276 260 156 q 254 417 260 344 q 247 554 247 521 q 261 622 247 610 m 263 792 q 294 803 272 803 q 322 797 311 803 q 340 789 332 790 q 358 782 354 786 q 364 765 364 778 q 354 738 364 747 q 314 724 344 726 q 294 722 306 722 q 269 732 281 722 q 254 767 254 744 q 263 792 254 781 z "},"k":{"ha":422,"x_min":39,"x_max":381,"o":"m 68 836 q 119 849 81 849 q 149 843 142 849 q 160 801 158 838 q 163 635 163 765 q 167 476 163 481 l 168 476 q 213 514 172 476 q 272 563 253 554 q 321 575 300 575 q 329 571 329 575 q 304 533 329 561 q 265 483 272 496 l 256 467 l 272 435 q 292 401 278 424 q 318 358 307 378 q 335 325 329 339 q 361 274 347 297 q 381 221 381 239 q 349 193 381 199 q 314 199 335 189 q 259 236 297 206 q 194 293 221 267 q 180 306 186 301 q 170 313 174 311 q 165 314 167 315 l 160 264 q 111 129 149 129 q 60 233 81 129 q 47 288 50 286 q 39 528 39 300 q 42 693 39 610 q 68 836 47 815 z "},"l":{"ha":210,"x_min":39,"x_max":176,"o":"m 60 821 q 83 869 68 861 q 142 878 97 878 l 169 876 l 171 632 q 174 372 171 389 q 176 261 176 350 q 175 185 176 203 q 129 107 171 107 q 116 110 122 107 q 104 119 110 113 q 94 132 99 126 q 86 149 90 138 q 80 166 82 161 q 74 185 78 171 q 68 201 69 199 q 49 282 60 226 q 39 506 39 335 q 60 821 39 718 z "},"m":{"ha":660,"x_min":39,"x_max":626,"o":"m 100 656 q 133 658 111 658 q 154 656 151 658 q 165 542 164 650 q 169 467 165 467 q 196 517 175 467 q 226 574 215 563 q 265 592 238 586 q 288 594 282 594 q 331 576 319 594 q 349 509 342 558 q 361 420 357 460 q 369 381 365 381 q 389 422 374 381 q 469 582 438 547 q 558 621 500 617 q 568 622 563 621 q 575 622 574 622 q 617 593 604 622 q 626 476 626 572 q 614 311 626 381 q 583 188 599 219 q 547 156 568 156 q 539 157 542 156 q 503 244 515 169 q 489 383 489 321 q 493 478 489 422 q 493 521 496 518 l 492 521 q 447 447 482 521 q 383 254 410 367 q 368 192 369 196 q 334 172 367 183 q 279 161 301 161 q 233 207 247 161 q 221 367 221 250 q 219 457 221 457 q 188 386 214 457 q 178 333 178 357 q 179 282 178 306 q 180 260 179 274 q 181 242 181 247 q 174 190 181 203 q 144 167 167 178 q 83 153 113 153 q 69 154 74 153 q 39 358 39 161 l 39 393 q 58 610 40 553 q 100 656 71 650 z "},"n":{"ha":515,"x_min":39,"x_max":482,"o":"m 56 689 q 118 714 74 714 l 136 714 l 139 694 q 151 590 147 640 q 174 443 168 443 q 192 483 178 443 q 254 603 218 560 q 306 644 274 626 q 374 663 339 661 l 392 663 q 419 653 408 663 q 457 579 442 635 q 481 333 478 506 q 482 257 482 300 q 476 181 482 207 q 465 139 468 142 q 447 122 461 129 q 419 115 432 115 q 351 215 378 115 q 324 328 331 289 q 311 449 318 367 q 293 571 304 540 q 281 568 290 582 q 218 410 240 508 q 211 321 211 382 q 218 242 211 263 q 222 218 222 228 q 203 192 222 206 q 181 175 183 178 q 154 163 176 169 q 121 156 132 156 l 118 156 q 79 236 100 160 q 39 553 39 382 q 56 689 39 667 z "},"o":{"ha":436,"x_min":39,"x_max":400,"o":"m 254 581 q 237 585 249 579 q 224 592 225 592 q 206 539 211 592 q 203 497 203 511 q 224 364 203 451 q 251 312 226 350 q 282 272 275 274 l 283 272 q 298 303 292 272 q 304 374 304 335 q 276 521 304 438 q 263 575 263 563 q 254 581 263 583 m 235 639 q 240 640 236 639 q 247 640 244 640 q 282 626 278 640 q 296 615 285 618 q 361 542 328 610 q 390 473 383 499 q 400 406 397 447 l 400 381 q 353 221 400 265 q 278 179 326 197 q 190 161 229 161 q 168 165 179 161 q 151 172 157 168 q 133 184 144 176 q 119 193 122 192 q 63 271 93 210 q 39 393 39 322 q 40 405 39 397 q 40 417 40 413 q 97 569 47 511 q 235 639 147 628 z "},"p":{"ha":546,"x_min":39,"x_max":514,"o":"m 292 565 q 274 596 276 596 q 229 543 264 596 q 200 490 215 521 l 186 458 l 189 364 q 195 272 190 285 q 232 243 200 260 q 257 235 249 235 q 286 261 269 235 q 325 414 325 324 q 292 565 325 497 m 111 704 q 147 710 126 710 q 167 706 163 710 q 176 676 171 700 q 181 636 181 651 q 184 615 181 618 q 201 625 188 613 q 333 663 239 663 l 350 663 q 408 653 390 660 q 453 619 426 646 q 514 471 514 558 q 492 368 514 424 q 413 257 463 301 q 243 188 339 192 l 199 185 l 199 100 q 181 -51 199 -17 q 149 -76 175 -64 q 103 -87 122 -87 q 89 -83 93 -87 q 49 40 65 -64 q 39 294 39 103 q 47 511 39 457 q 53 552 50 519 q 57 590 56 585 q 64 617 61 601 q 94 697 69 660 q 111 704 94 699 z "},"q":{"ha":508,"x_min":39,"x_max":472,"o":"m 256 546 q 239 571 244 567 q 233 572 235 574 q 226 560 231 571 q 204 481 204 508 q 199 443 204 476 q 194 360 194 418 q 197 314 194 322 q 201 308 200 308 q 229 344 207 308 q 253 385 242 365 q 272 416 265 404 q 276 428 278 428 q 279 437 275 428 q 288 455 283 446 q 289 465 292 464 q 275 496 285 468 q 256 546 264 529 m 133 592 q 261 638 186 638 q 301 625 288 638 q 324 596 318 608 q 331 583 328 586 q 338 581 335 579 q 401 594 379 594 q 427 583 419 594 q 442 539 435 571 q 463 396 449 499 q 472 233 472 310 q 460 96 472 150 q 446 18 449 40 q 422 -83 433 -61 q 375 -117 406 -117 q 353 -105 365 -117 q 340 -82 342 -93 q 319 8 339 -74 q 297 128 300 90 q 294 249 294 175 q 297 338 294 332 q 297 349 300 342 q 292 348 296 353 q 276 321 289 343 q 247 272 253 278 q 192 237 235 256 q 128 218 150 218 l 124 218 q 103 219 119 219 q 75 233 92 219 q 39 340 39 265 q 49 421 39 381 q 133 592 76 542 z "},"r":{"ha":440,"x_min":39,"x_max":404,"o":"m 278 647 q 322 654 306 654 l 325 654 q 382 628 360 654 q 404 563 404 603 q 396 531 404 539 q 364 522 388 522 q 321 542 344 522 q 271 593 304 556 l 256 569 q 183 386 201 488 q 179 346 179 365 q 189 269 179 317 q 201 163 201 203 q 197 129 201 139 q 165 105 193 118 q 111 90 138 92 q 95 89 100 89 q 86 90 90 89 q 81 94 82 92 q 76 100 79 96 q 51 237 63 122 q 39 472 39 351 l 39 490 q 60 632 40 611 q 96 644 69 643 q 129 633 122 646 l 136 601 q 150 539 143 569 l 156 507 q 175 543 157 507 q 221 617 201 597 q 278 647 240 638 z "},"s":{"ha":463,"x_min":44,"x_max":422,"o":"m 207 672 q 261 676 236 676 q 358 658 321 676 q 394 613 394 640 q 383 582 394 600 q 326 558 367 558 q 301 564 310 558 q 276 589 292 569 q 254 608 269 599 q 240 614 247 614 q 222 583 232 614 q 215 550 215 560 q 226 514 215 536 q 246 485 233 497 q 317 424 258 474 q 382 360 361 386 q 413 303 403 333 q 422 256 422 274 q 413 221 422 240 q 334 154 393 181 q 206 126 275 128 q 103 149 163 126 q 62 178 79 157 q 44 219 44 200 q 49 233 44 228 q 113 257 60 253 l 138 260 l 157 239 q 201 209 174 222 q 247 196 229 196 q 260 199 257 196 q 267 221 267 206 q 218 353 267 279 q 153 424 201 376 q 94 485 108 464 q 81 532 81 506 q 81 539 81 533 q 82 547 82 544 q 154 654 88 619 q 207 672 182 668 z "},"t":{"ha":469,"x_min":44,"x_max":428,"o":"m 144 649 l 153 703 q 182 815 163 757 q 228 879 201 872 q 254 883 239 883 l 257 883 q 274 865 271 883 q 279 767 278 846 q 279 736 279 751 q 280 709 279 721 q 281 688 281 697 q 281 672 281 678 l 281 665 q 319 658 281 658 q 390 640 390 658 q 319 621 390 629 q 281 613 282 615 q 278 567 278 607 q 290 335 278 422 q 308 252 297 288 q 328 217 318 217 q 389 318 344 217 q 426 389 419 389 q 428 386 428 389 q 418 342 428 375 q 399 271 411 321 q 370 203 386 224 q 315 164 354 183 q 254 149 288 149 q 219 157 232 149 q 156 263 176 183 q 136 440 136 338 q 140 565 136 494 l 143 613 l 104 613 q 44 628 44 613 q 110 644 44 640 q 144 649 143 647 z "},"u":{"ha":568,"x_min":39,"x_max":528,"o":"m 68 638 q 110 651 93 651 q 122 650 118 651 q 145 612 132 649 q 192 457 158 575 q 238 328 210 393 q 282 246 265 263 q 291 240 289 240 q 301 250 293 240 q 358 365 331 283 q 371 454 371 401 q 392 585 371 561 q 425 606 400 593 q 460 619 450 619 q 476 601 469 619 q 490 521 482 582 q 506 419 500 446 q 513 363 508 404 q 515 318 517 322 q 521 285 515 307 q 528 214 528 243 l 528 194 q 518 167 528 174 q 499 157 508 160 l 496 157 q 469 166 485 157 q 444 185 453 175 q 385 297 419 213 q 375 297 381 307 l 367 279 q 246 176 331 207 q 199 167 214 167 q 144 185 171 167 q 39 536 43 250 l 39 563 q 44 616 39 603 q 68 638 50 629 z "},"v":{"ha":463,"x_min":39,"x_max":421,"o":"m 72 604 q 113 606 96 613 q 172 503 133 596 q 199 437 179 488 q 233 356 218 386 q 243 329 243 333 q 254 329 243 317 q 263 344 258 335 q 278 382 268 360 q 286 403 286 401 q 319 478 286 413 q 367 567 351 544 q 393 586 374 578 q 415 588 410 594 q 421 576 421 579 q 406 519 421 567 q 378 442 390 471 q 297 228 332 339 l 282 182 l 257 167 q 171 138 213 138 q 150 142 158 138 q 89 292 125 156 q 39 547 42 474 l 39 557 q 45 588 39 579 q 72 604 51 597 z "},"w":{"ha":668,"x_min":39,"x_max":635,"o":"m 590 628 q 621 624 610 635 q 635 521 635 607 q 632 454 635 499 q 601 242 617 279 q 542 197 593 221 q 456 172 490 172 q 440 175 449 172 q 329 368 390 196 q 314 406 318 399 l 313 407 q 282 311 306 407 q 256 231 265 240 q 224 214 249 222 q 183 204 200 206 l 176 204 q 140 229 164 204 q 78 347 104 269 q 40 546 44 446 q 40 561 40 551 q 39 575 39 571 q 46 611 39 603 q 78 625 53 619 q 96 628 92 628 q 119 609 111 628 q 154 513 128 590 q 222 333 214 333 q 256 444 229 333 q 277 507 267 493 q 319 531 288 521 q 368 542 353 542 q 411 516 392 542 q 472 408 431 490 q 508 346 501 349 q 520 388 514 346 q 531 475 526 429 q 538 525 536 521 q 549 565 540 532 q 590 628 560 617 z "},"x":{"ha":486,"x_min":43,"x_max":444,"o":"m 369 649 q 419 658 388 658 q 444 650 444 658 q 417 594 444 644 q 372 519 389 544 q 360 499 360 501 q 338 463 360 497 q 318 425 318 432 q 329 403 318 421 q 333 399 331 401 q 338 392 335 396 q 342 386 340 388 q 392 301 379 342 q 407 263 397 282 q 414 233 417 242 q 395 216 413 224 q 360 208 378 208 q 326 219 343 208 q 250 272 308 229 l 221 294 l 200 265 q 176 228 194 256 q 153 192 158 200 q 115 137 126 149 q 89 125 103 125 q 64 144 64 125 q 118 282 64 172 q 157 364 157 363 q 144 382 157 367 q 72 499 100 439 q 43 594 43 560 q 50 619 43 613 q 108 635 65 635 q 125 633 121 635 q 169 596 139 628 q 224 535 199 564 q 251 507 249 507 q 283 549 254 507 q 369 649 344 636 z "},"y":{"ha":396,"x_min":39,"x_max":360,"o":"m 310 592 q 339 593 314 593 l 360 593 l 360 563 q 328 421 358 526 q 261 224 297 315 q 225 125 242 172 q 156 -57 181 -8 q 126 -97 135 -97 l 122 -97 q 111 -53 111 -93 q 144 193 111 13 l 151 239 l 122 275 q 39 513 39 376 q 45 567 39 557 q 82 581 51 578 q 107 581 103 582 q 121 569 111 579 q 156 510 131 560 q 189 436 181 461 q 192 428 190 432 q 195 424 193 425 q 199 422 197 422 q 208 447 201 422 q 228 507 215 472 q 254 561 240 542 q 310 592 268 582 z "},"z":{"ha":510,"x_min":44,"x_max":467,"o":"m 282 665 q 322 669 300 669 q 367 646 367 669 q 332 531 367 611 q 265 333 303 457 q 251 269 251 282 q 252 264 251 267 q 253 258 253 261 q 286 215 260 215 q 313 224 297 215 q 387 257 333 235 q 454 281 440 279 q 463 282 460 282 q 467 281 467 282 q 467 276 467 279 q 427 244 464 271 q 372 208 390 218 q 354 196 363 204 q 263 163 349 188 q 186 153 229 153 l 142 151 l 126 168 q 106 221 106 189 q 110 243 106 233 q 178 444 125 308 q 231 596 231 579 q 229 597 231 597 q 163 565 221 597 q 97 529 106 532 q 61 522 79 522 q 44 528 44 522 q 92 572 44 538 q 186 629 139 606 q 282 665 247 660 z "}," ":{"ha":347,"x_min":0,"x_max":0,"o":""}}}
